<svg width="348" height="83" viewBox="0 0 348 83" fill="none" xmlns="http://www.w3.org/2000/svg">
<path d="M21.5869 29.38C21.0669 30.06 20.5869 30.88 20.1469 31.84C19.7869 32.68 19.4669 33.72 19.1869 34.96C18.9069 36.2 18.7669 37.66 18.7669 39.34C18.7669 41.62 18.9869 43.62 19.4269 45.34C19.9069 47.06 20.4469 48.5 21.0469 49.66C21.6469 50.82 22.2269 51.7 22.7869 52.3C23.3869 52.9 23.8069 53.2 24.0469 53.2C24.2869 53.2 24.4869 53.14 24.6469 53.02C24.8069 52.86 24.9269 52.7 25.0069 52.54C25.0869 52.34 25.1269 52.16 25.1269 52C25.1669 51.84 25.1869 51.74 25.1869 51.7V34.06C25.1869 33.86 24.9869 33.52 24.5869 33.04C24.2269 32.52 23.8269 31.98 23.3869 31.42C22.8669 30.78 22.2669 30.1 21.5869 29.38ZM32.2069 16.96V54.04C32.2069 54.44 32.2869 54.82 32.4469 55.18C32.6069 55.54 32.7869 55.86 32.9869 56.14C33.2269 56.38 33.4469 56.6 33.6469 56.8C33.8869 57 34.0669 57.16 34.1869 57.28L29.5669 62.56L26.0269 59.2C25.9469 59.12 25.7669 58.88 25.4869 58.48C25.2069 58.04 25.0669 57.38 25.0669 56.5L19.8469 62.38C18.5669 61.22 17.4069 59.82 16.3669 58.18C15.4869 56.78 14.6869 55.02 13.9669 52.9C13.2869 50.74 12.9469 48.18 12.9469 45.22C12.9469 42.3 13.2869 39.7 13.9669 37.42C14.6869 35.1 15.5269 33.1 16.4869 31.42C17.4469 29.7 18.4269 28.32 19.4269 27.28C20.4269 26.2 21.2069 25.42 21.7669 24.94L25.0069 28.18V23.86C24.9269 23.26 24.8069 22.66 24.6469 22.06C24.4869 21.54 24.2669 20.98 23.9869 20.38C23.7069 19.78 23.3269 19.24 22.8469 18.76L32.2069 16.96ZM41.1216 18.04C41.5216 18.92 42.0216 19.66 42.6216 20.26C43.2616 20.86 43.8816 21.16 44.4816 21.16C45.1616 21.16 45.5616 21.06 45.6816 20.86C45.5616 21.38 45.3616 21.82 45.0816 22.18C44.8016 22.5 44.5016 22.78 44.1816 23.02C43.8616 23.22 43.5216 23.38 43.1616 23.5C42.8416 23.58 42.5416 23.62 42.2616 23.62C40.1016 23.62 38.6216 22.84 37.8216 21.28L41.1216 18.04ZM38.0616 33.22C38.0616 32.5 37.8616 31.82 37.4616 31.18C37.1016 30.5 36.7616 29.96 36.4416 29.56L41.4216 24.94L45.5016 29.8V61H38.0616V33.22ZM48.4031 53.8L53.2631 49L59.0231 55.24L59.8031 54.4C59.8831 54.32 59.9431 54.24 59.9831 54.16C60.0231 54.04 60.0431 53.84 60.0431 53.56C60.0431 53.4 60.0231 53.24 59.9831 53.08C59.9831 52.92 59.9031 52.74 59.7431 52.54L50.6831 41.32C50.1231 40.64 49.6831 39.94 49.3631 39.22C49.0431 38.46 48.8831 37.78 48.8831 37.18C48.8831 36.54 48.9431 35.94 49.0631 35.38C49.2231 34.78 49.4631 34.32 49.7831 34L58.2431 25L64.4831 32.26L59.8031 37.3L55.7831 32.62C55.6631 32.78 55.5231 32.92 55.3631 33.04C55.2431 33.16 55.1231 33.26 55.0031 33.34C54.9231 33.42 54.8431 33.5 54.7631 33.58C54.6431 33.7 54.5831 33.82 54.5831 33.94C54.5831 34.1 54.6631 34.26 54.8231 34.42L63.7631 45.4C64.1231 45.84 64.5231 46.46 64.9631 47.26C65.4431 48.02 65.6831 48.94 65.6831 50.02C65.6831 51.1 65.5031 51.98 65.1431 52.66C64.7831 53.34 64.3231 53.96 63.7631 54.52L56.0231 61.9L48.4031 53.8ZM70.0106 61V33.52C70.0106 32.92 69.7706 32.4 69.2906 31.96C68.8506 31.52 68.5306 31.2 68.3306 31L73.0106 25.54L77.2106 30.7C77.3706 30.94 77.4906 31.18 77.5706 31.42C77.6106 31.58 77.6506 31.72 77.6906 31.84L83.5106 25.42L88.4306 31.18V54.4C88.4306 55.2 88.6106 55.84 88.9706 56.32C89.3306 56.8 89.6106 57.1 89.8106 57.22L84.7106 62.38L81.8306 58.54C81.7506 58.46 81.5906 58.24 81.3506 57.88C81.1106 57.52 80.9906 56.94 80.9906 56.14V35.02C80.9906 34.7 80.8906 34.42 80.6906 34.18C80.5306 33.9 80.2506 33.76 79.8506 33.76C79.5306 33.76 79.1506 33.96 78.7106 34.36C78.2706 34.72 77.9506 35 77.7506 35.2V61H70.0106ZM100.564 41.68C100.684 41.56 100.884 41.32 101.164 40.96C101.444 40.56 101.584 40.14 101.584 39.7C101.584 39.18 101.464 38.7 101.224 38.26C100.984 37.78 100.764 37.4 100.564 37.12L98.3442 33.52C98.2642 33.64 98.1442 33.88 97.9842 34.24C97.8242 34.6 97.6442 35.06 97.4442 35.62C97.2842 36.14 97.1242 36.7 96.9642 37.3C96.8442 37.9 96.7842 38.5 96.7842 39.1C96.7842 39.78 96.8442 40.42 96.9642 41.02C97.0842 41.62 97.2442 42.14 97.4442 42.58C97.6442 43.1 97.8842 43.6 98.1642 44.08L100.564 41.68ZM92.3442 43.06C92.3442 40.14 92.7842 37.56 93.6642 35.32C94.5842 33.04 95.6042 31.12 96.7242 29.56C97.8842 28 98.9642 26.78 99.9642 25.9C101.004 25.02 101.644 24.5 101.884 24.34L108.904 36.64L99.4842 47.26C100.564 49.06 101.584 50.5 102.544 51.58C103.504 52.62 104.384 53.42 105.184 53.98C105.984 54.5 106.664 54.84 107.224 55C107.824 55.12 108.284 55.18 108.604 55.18C108.804 55.18 108.944 55.16 109.024 55.12L102.064 62.2C101.744 62 101.064 61.48 100.024 60.64C98.9842 59.8 97.8842 58.6 96.7242 57.04C95.6042 55.48 94.5842 53.54 93.6642 51.22C92.7842 48.9 92.3442 46.18 92.3442 43.06ZM118.121 25.9C118.121 28.86 118.161 31.64 118.241 34.24C118.361 36.8 118.541 39.16 118.781 41.32C119.061 43.48 119.441 45.42 119.921 47.14C120.401 48.82 121.041 50.24 121.841 51.4C122.481 49.08 123.001 46.64 123.401 44.08C123.801 41.52 124.001 38.86 124.001 36.1C124.001 33.86 123.821 32.02 123.461 30.58C123.101 29.14 122.921 28.06 122.921 27.34C122.921 26.94 123.061 26.74 123.341 26.74H129.041C129.361 26.74 129.521 26.94 129.521 27.34C129.521 27.42 129.441 27.8 129.281 28.48C129.121 29.12 128.941 29.92 128.741 30.88C128.541 31.8 128.341 32.82 128.141 33.94C127.941 35.02 127.801 36.04 127.721 37C127.481 40.24 126.961 43.52 126.161 46.84C125.401 50.16 124.581 53.26 123.701 56.14C122.821 58.98 121.981 61.46 121.181 63.58C120.421 65.74 119.941 67.3 119.741 68.26C119.661 68.7 119.581 69.14 119.501 69.58C119.461 70.02 119.361 70.24 119.201 70.24H113.741C114.181 69.52 114.821 68.4 115.661 66.88C116.501 65.36 117.381 63.54 118.301 61.42C116.981 60.18 115.861 58.42 114.941 56.14C114.021 53.86 113.281 51.4 112.721 48.76C112.161 46.12 111.741 43.46 111.461 40.78C111.221 38.06 111.101 35.64 111.101 33.52C111.101 33 111.121 32.42 111.161 31.78C111.201 31.1 111.241 30.46 111.281 29.86C111.321 29.22 111.361 28.66 111.401 28.18C111.441 27.7 111.461 27.36 111.461 27.16C112.581 27 113.701 26.82 114.821 26.62C115.941 26.42 117.041 26.18 118.121 25.9ZM132.677 52.66C133.637 53.5 134.517 54.34 135.317 55.18C136.157 55.98 136.877 56.82 137.477 57.7L132.677 63.34L127.577 58.3L132.677 52.66ZM148.692 30.4L152.472 24.58C152.752 24.82 153.312 25.4 154.152 26.32C155.032 27.24 155.932 28.48 156.852 30.04C157.812 31.56 158.652 33.38 159.372 35.5C160.132 37.58 160.512 39.94 160.512 42.58C160.512 45.18 160.132 47.56 159.372 49.72C158.612 51.88 157.692 53.8 156.612 55.48C155.572 57.12 154.492 58.52 153.372 59.68C152.252 60.8 151.332 61.64 150.612 62.2L140.652 58.6C140.732 58.44 140.852 58.06 141.012 57.46C141.172 56.82 141.252 56.26 141.252 55.78V22.84C141.252 22.64 141.152 22.14 140.952 21.34C140.792 20.5 140.492 19.72 140.052 19L148.692 17.02V30.4ZM152.832 55.66C153.192 55.38 153.492 54.94 153.732 54.34C153.972 53.74 154.152 53.1 154.272 52.42C154.432 51.74 154.532 51.04 154.572 50.32C154.652 49.6 154.692 48.94 154.692 48.34C154.692 45.98 154.432 43.96 153.912 42.28C153.432 40.56 152.872 39.16 152.232 38.08C151.632 36.96 151.052 36.14 150.492 35.62C149.972 35.1 149.652 34.84 149.532 34.84C149.052 34.84 148.812 34.98 148.812 35.26V54.04L152.832 55.66ZM168.244 34.06C167.684 34.1 167.304 34.4 167.104 34.96C166.904 35.48 166.804 36.18 166.804 37.06C166.804 38.06 166.924 39.22 167.164 40.54C167.444 41.86 167.864 43.24 168.424 44.68C168.904 45.92 169.404 47.06 169.924 48.1C170.484 49.14 171.024 50.04 171.544 50.8C172.104 51.52 172.624 52.1 173.104 52.54C173.624 52.94 174.104 53.14 174.544 53.14C175.104 53.14 175.484 52.86 175.684 52.3C175.884 51.74 175.984 51.04 175.984 50.2C175.984 48.12 175.424 45.56 174.304 42.52C173.864 41.32 173.364 40.2 172.804 39.16C172.284 38.12 171.744 37.22 171.184 36.46C170.664 35.7 170.144 35.12 169.624 34.72C169.104 34.28 168.644 34.06 168.244 34.06ZM180.364 45.04C180.364 46.12 180.224 47.32 179.944 48.64C179.664 49.96 179.164 51.38 178.444 52.9C177.764 54.38 176.864 55.94 175.744 57.58C174.624 59.18 173.224 60.78 171.544 62.38C169.264 60.42 167.504 58.5 166.264 56.62C165.064 54.7 164.184 52.88 163.624 51.16C163.064 49.4 162.724 47.74 162.604 46.18C162.524 44.62 162.484 43.18 162.484 41.86C162.484 40.54 162.644 39.1 162.964 37.54C163.324 35.94 163.864 34.38 164.584 32.86C165.344 31.34 166.284 29.9 167.404 28.54C168.524 27.14 169.864 25.98 171.424 25.06C173.504 26.62 175.124 28.34 176.284 30.22C177.484 32.06 178.384 33.92 178.984 35.8C179.584 37.64 179.964 39.38 180.124 41.02C180.284 42.62 180.364 43.96 180.364 45.04ZM203.04 54.64C203.08 55.68 203.6 56.64 204.6 57.52L199.62 62.86L195.42 58.42V56.98C194.98 57.3 194.44 57.7 193.8 58.18C193.16 58.66 192.52 59.16 191.88 59.68C191.28 60.2 190.7 60.7 190.14 61.18C189.62 61.7 189.24 62.1 189 62.38L184.68 57.4V34.36C184.68 33.68 184.44 33.08 183.96 32.56C183.52 32 183.16 31.56 182.88 31.24L188.4 25.9C188.52 26.14 188.74 26.48 189.06 26.92C189.42 27.32 189.8 27.74 190.2 28.18C190.6 28.58 190.98 28.96 191.34 29.32C191.74 29.68 192.04 29.92 192.24 30.04V51.7C192.24 52.3 192.34 52.86 192.54 53.38C192.78 53.9 193.12 54.16 193.56 54.16C193.8 54.16 194.08 54.04 194.4 53.8C194.76 53.56 195.1 53.24 195.42 52.84V28.18C196.02 28.18 196.74 28.08 197.58 27.88C198.46 27.64 199.3 27.36 200.1 27.04C201.06 26.72 202.04 26.34 203.04 25.9V54.64ZM209.288 61V33.52C209.288 32.92 209.048 32.4 208.568 31.96C208.128 31.52 207.808 31.2 207.608 31L212.288 25.54L216.488 30.7C216.648 30.94 216.768 31.18 216.848 31.42C216.888 31.58 216.928 31.72 216.968 31.84L222.788 25.42L227.708 31.18V54.4C227.708 55.2 227.888 55.84 228.248 56.32C228.608 56.8 228.888 57.1 229.088 57.22L223.988 62.38L221.108 58.54C221.028 58.46 220.868 58.24 220.628 57.88C220.388 57.52 220.268 56.94 220.268 56.14V35.02C220.268 34.7 220.168 34.42 219.968 34.18C219.808 33.9 219.528 33.76 219.128 33.76C218.808 33.76 218.428 33.96 217.988 34.36C217.548 34.72 217.228 35 217.028 35.2V61H209.288ZM240.142 29.38C239.622 30.06 239.142 30.88 238.702 31.84C238.342 32.68 238.022 33.72 237.742 34.96C237.462 36.2 237.322 37.66 237.322 39.34C237.322 41.62 237.542 43.62 237.982 45.34C238.462 47.06 239.002 48.5 239.602 49.66C240.202 50.82 240.782 51.7 241.342 52.3C241.942 52.9 242.362 53.2 242.602 53.2C242.842 53.2 243.042 53.14 243.202 53.02C243.362 52.86 243.482 52.7 243.562 52.54C243.642 52.34 243.682 52.16 243.682 52C243.722 51.84 243.742 51.74 243.742 51.7V34.06C243.742 33.86 243.542 33.52 243.142 33.04C242.782 32.52 242.382 31.98 241.942 31.42C241.422 30.78 240.822 30.1 240.142 29.38ZM250.762 16.96V54.04C250.762 54.44 250.842 54.82 251.002 55.18C251.162 55.54 251.342 55.86 251.542 56.14C251.782 56.38 252.002 56.6 252.202 56.8C252.442 57 252.622 57.16 252.742 57.28L248.122 62.56L244.582 59.2C244.502 59.12 244.322 58.88 244.042 58.48C243.762 58.04 243.622 57.38 243.622 56.5L238.402 62.38C237.122 61.22 235.962 59.82 234.922 58.18C234.042 56.78 233.242 55.02 232.522 52.9C231.842 50.74 231.502 48.18 231.502 45.22C231.502 42.3 231.842 39.7 232.522 37.42C233.242 35.1 234.082 33.1 235.042 31.42C236.002 29.7 236.982 28.32 237.982 27.28C238.982 26.2 239.762 25.42 240.322 24.94L243.562 28.18V23.86C243.482 23.26 243.362 22.66 243.202 22.06C243.042 21.54 242.822 20.98 242.542 20.38C242.262 19.78 241.882 19.24 241.402 18.76L250.762 16.96ZM261.056 52.66C262.016 53.5 262.896 54.34 263.696 55.18C264.536 55.98 265.256 56.82 265.856 57.7L261.056 63.34L255.956 58.3L261.056 52.66ZM269.631 58.54V33.64C269.631 32.96 269.391 32.38 268.911 31.9C268.431 31.38 268.011 30.92 267.651 30.52L277.011 21.16V28.54H279.891V32.14H277.011V54.34C277.011 55.1 277.271 55.8 277.791 56.44C278.351 57.04 278.831 57.56 279.231 58L273.771 62.98L269.631 58.54ZM286.278 18.04C286.678 18.92 287.178 19.66 287.778 20.26C288.418 20.86 289.038 21.16 289.638 21.16C290.318 21.16 290.718 21.06 290.838 20.86C290.718 21.38 290.518 21.82 290.238 22.18C289.958 22.5 289.658 22.78 289.338 23.02C289.018 23.22 288.678 23.38 288.318 23.5C287.998 23.58 287.698 23.62 287.418 23.62C285.258 23.62 283.778 22.84 282.978 21.28L286.278 18.04ZM283.218 33.22C283.218 32.5 283.018 31.82 282.618 31.18C282.258 30.5 281.918 29.96 281.598 29.56L286.578 24.94L290.658 29.8V61H283.218V33.22ZM302.919 35.68V50.98L307.299 54.7C307.659 54.18 307.979 53.66 308.259 53.14C308.539 52.62 308.759 52.06 308.919 51.46C309.079 50.82 309.199 50.12 309.279 49.36C309.359 48.56 309.399 47.64 309.399 46.6C309.399 45.6 309.279 44.42 309.039 43.06C308.799 41.7 308.459 40.4 308.019 39.16C307.579 37.88 307.059 36.76 306.459 35.8C305.859 34.84 305.199 34.24 304.479 34L302.919 35.68ZM295.659 68.74V55.36L293.799 54.04L295.659 52.12V33.88C295.659 32.96 295.519 32.26 295.239 31.78C294.999 31.3 294.559 30.78 293.919 30.22L299.199 25.06L302.919 29.62V31.66L308.619 25.06C310.819 26.94 312.499 29.28 313.659 32.08C314.819 34.88 315.399 37.98 315.399 41.38C315.399 43.06 315.239 44.66 314.919 46.18C314.599 47.66 314.039 49.2 313.239 50.8C312.479 52.4 311.419 54.1 310.059 55.9C308.739 57.7 307.059 59.74 305.019 62.02L302.919 60.52V68.74H295.659ZM317.466 53.8L322.326 49L328.086 55.24L328.866 54.4C328.946 54.32 329.006 54.24 329.046 54.16C329.086 54.04 329.106 53.84 329.106 53.56C329.106 53.4 329.086 53.24 329.046 53.08C329.046 52.92 328.966 52.74 328.806 52.54L319.746 41.32C319.186 40.64 318.746 39.94 318.426 39.22C318.106 38.46 317.946 37.78 317.946 37.18C317.946 36.54 318.006 35.94 318.126 35.38C318.286 34.78 318.526 34.32 318.846 34L327.306 25L333.546 32.26L328.866 37.3L324.846 32.62C324.726 32.78 324.586 32.92 324.426 33.04C324.306 33.16 324.186 33.26 324.066 33.34C323.986 33.42 323.906 33.5 323.826 33.58C323.706 33.7 323.646 33.82 323.646 33.94C323.646 34.1 323.726 34.26 323.886 34.42L332.826 45.4C333.186 45.84 333.586 46.46 334.026 47.26C334.506 48.02 334.746 48.94 334.746 50.02C334.746 51.1 334.566 51.98 334.206 52.66C333.846 53.34 333.386 53.96 332.826 54.52L325.086 61.9L317.466 53.8Z" fill="black"/>
</svg>
