<svg width="520" height="301" viewBox="0 0 520 301" fill="none" xmlns="http://www.w3.org/2000/svg">
<path d="M162.1 73.0429C165.46 73.0429 168.259 76.0374 168.259 79.4063C168.259 82.5879 165.833 85.3953 162.66 85.5825C157.248 86.1439 156.688 87.8283 156.688 93.6302V106.731C156.688 112.72 156.875 126.57 157.061 137.612C157.061 141.542 153.889 144.724 150.156 144.724C147.73 144.724 145.491 143.788 144.184 141.917L139.145 134.805C137.839 133.12 135.973 132.185 133.92 132.185C132.614 132.185 131.307 132.559 130.187 133.307C114.324 143.975 99.7676 145.473 86.7039 145.473C46.9529 145.473 23.2516 115.153 23.2516 76.9732C23.2516 33.3657 52.9249 3.98206 97.1549 3.98206C107.046 3.98206 125.149 5.47932 134.107 9.0353C133.92 5.29216 135.973 2.11049 139.892 2.11049C142.505 2.11049 144.931 3.98206 145.491 6.78941L157.808 61.4392C158.368 64.2466 157.061 67.0539 154.635 68.364C153.702 68.9255 152.769 69.1126 151.649 69.1126C149.41 69.1126 147.17 67.8026 146.051 65.5567C131.68 37.1088 118.617 17.2702 98.4613 17.2702C90.9963 17.2702 69.3479 17.2702 69.3479 76.9732C69.3479 90.4485 69.7211 131.81 90.623 131.81C99.581 131.81 108.352 123.388 113.578 112.72V95.3146C113.578 88.0155 108.912 85.9568 102.38 85.5825C99.2078 85.3953 96.5951 82.7751 96.5951 79.4063C96.5951 75.8503 99.3944 73.0429 102.754 73.0429C113.018 73.2301 123.096 73.7916 133.36 73.7916C142.878 73.7916 152.582 73.2301 162.1 73.0429Z" fill="#54340E"/>
<path d="M226.691 131.997C229.864 132.372 232.29 134.992 232.29 138.174C232.29 141.73 229.491 144.537 225.945 144.537C216.8 144.537 207.842 143.788 198.511 143.788C189.18 143.788 179.662 144.537 170.331 144.537C166.785 144.537 163.985 141.73 163.985 138.174C163.985 134.992 166.412 132.372 169.771 131.997C173.317 131.623 175.556 129.751 175.556 123.95V25.6923C175.556 21.3876 173.317 18.0188 169.771 17.8317C166.412 17.4574 163.985 14.8372 163.985 11.4683C163.985 8.09951 166.785 5.29216 170.331 5.29216C179.475 5.29216 188.62 6.04078 197.765 6.04078C207.096 6.04078 216.614 5.29216 225.945 5.29216C229.491 5.29216 232.29 8.09951 232.29 11.4683C232.29 14.8372 229.864 17.4574 226.691 17.8317C222.959 18.0188 220.719 20.0776 220.719 25.6923V123.95C220.719 128.441 222.959 131.623 226.691 131.997Z" fill="#54340E"/>
<path d="M362.604 5.105C365.963 5.105 368.576 7.91236 368.576 11.2812C368.576 14.65 365.963 17.2702 362.79 17.4574C356.818 18.0188 350.286 24.3822 339.462 51.1456L302.324 141.542C301.577 143.414 299.711 144.724 297.658 144.724H290.193C287.954 144.724 286.088 143.414 285.341 141.542L239.618 30.9326C235.699 21.5748 233.833 17.8317 229.54 17.4574C226.368 17.2702 223.942 14.4628 223.942 11.2812C223.942 7.91236 226.741 5.105 230.287 5.105C240.365 5.105 250.256 5.85362 260.333 5.85362C271.531 5.85362 282.728 5.105 293.926 5.105C297.472 5.105 300.271 7.91236 300.271 11.2812C300.271 14.65 297.472 17.4574 294.112 17.4574C285.528 17.8317 285.341 24.5693 286.834 28.1253L310.535 86.5182L324.346 52.6428C329.571 39.729 334.61 18.206 314.268 17.4574C310.909 17.4574 308.109 14.65 308.109 11.2812C308.109 7.91236 310.909 5.105 314.454 5.105C323.599 5.105 332.744 5.85362 342.075 5.85362C348.793 5.85362 355.699 5.105 362.604 5.105Z" fill="#54340E"/>
<path d="M484.681 92.6944C487.854 93.443 489.72 96.8119 488.787 99.8064L473.857 146.783C473.297 149.029 471.244 150.526 468.818 150.526C465.459 150.526 462.846 147.344 463.592 143.975L463.779 143.788H365.614C362.255 143.788 359.456 140.981 359.456 137.612C359.456 134.43 361.882 131.623 365.055 131.249C370.653 130.687 371.027 129.19 371.027 123.201C371.027 123.201 371.027 42.5364 371.027 26.4409C371.027 20.2647 370.653 18.9546 365.055 18.3931C361.882 18.0188 359.456 15.2115 359.456 12.0298C359.456 8.66097 362.255 5.85362 365.614 5.85362H460.793C460.98 3.04627 462.846 0.613233 465.645 0.0517702C468.445 -0.32255 471.431 1.36186 472.177 4.16921L485.801 49.0869C486.734 51.8942 485.428 55.0759 482.628 56.386C481.695 56.7603 480.762 56.9475 480.015 56.9475C478.149 56.9475 476.283 56.1988 475.163 54.5144C468.258 45.1566 461.353 34.6758 452.582 27.751C446.05 22.5106 438.585 19.1418 429.253 19.1418H419.549C416.376 19.1418 416.003 20.2647 416.003 23.4464V68.9255C428.88 68.9255 437.278 61.2521 438.398 48.7126C438.585 45.5309 441.197 43.0978 444.743 43.0978C448.849 43.0978 450.902 45.5309 450.902 48.3382C450.902 48.5254 450.155 70.6099 450.155 75.6631C450.155 80.9035 450.902 96.999 450.902 102.427C450.902 106.357 448.289 108.228 444.557 108.228C440.078 108.228 438.585 105.234 438.398 102.427C437.651 89.5128 429.253 82.4008 416.003 82.4008V126.195C416.003 129.377 416.376 130.313 419.549 130.313H432.613C450.529 130.313 469.191 108.041 478.709 94.9403C479.829 93.443 481.508 92.5072 483.375 92.5072C483.748 92.5072 484.308 92.5073 484.681 92.6944Z" fill="#54340E"/>
<path d="M130.077 239.987C133.25 240.923 134.93 244.291 133.81 247.286C124.665 274.611 100.217 295.198 69.7976 295.198C28.367 295.198 0 265.066 0 223.891C0 181.968 29.3001 153.708 72.7836 153.708C82.8614 153.708 100.777 155.205 109.735 158.761V158.199C109.549 154.83 112.161 151.836 115.521 151.836C118.32 151.836 120.56 153.708 121.119 156.515L133.437 211.165C133.997 213.972 132.69 216.779 130.264 218.089C129.331 218.651 128.398 218.838 127.278 218.838C125.039 218.838 122.799 217.528 121.679 215.282C107.496 186.834 94.2455 166.996 74.09 166.996C56.7339 166.996 45.1632 185.15 45.1632 212.288C45.1632 245.04 62.146 265.253 89.7664 265.253C105.07 265.253 116.827 256.644 123.172 242.981C124.105 240.923 125.972 239.613 128.211 239.613C128.771 239.613 129.518 239.8 130.077 239.987Z" fill="#54340E"/>
<path d="M183.023 236.057L172.386 211.165L161.562 236.057H183.023ZM255.247 281.91C258.606 282.097 261.219 284.717 261.219 288.086C261.219 291.455 258.42 294.449 255.061 294.449C245.543 294.449 236.025 293.701 226.507 293.701C214.75 293.701 202.992 294.449 191.235 294.449C187.689 294.449 184.89 291.455 184.89 287.899C184.89 284.717 187.129 281.91 190.115 281.349C194.967 280.413 201.872 279.664 198.327 271.429L188.995 249.532H156.149C155.03 252.152 154.283 254.959 153.723 257.392C150.364 269.932 152.23 281.536 167.347 281.91C170.893 282.097 173.692 285.279 173.319 289.022C172.946 292.204 170.146 294.449 166.974 294.449C157.269 294.449 147.378 293.701 137.674 293.701C131.142 293.701 124.61 294.449 118.078 294.449C114.346 294.449 111.546 289.771 113.412 285.653C114.532 283.407 116.772 282.097 119.011 281.91C124.61 281.349 130.768 274.798 142.153 248.222L180.971 158.012C181.717 155.953 183.77 154.83 185.823 154.83H193.288C195.341 154.83 197.207 155.953 197.953 158.012L246.849 271.616C250.768 280.974 252.821 281.91 255.247 281.91Z" fill="#54340E"/>
<path d="M307.861 173.172V220.523H314.206C328.576 220.523 330.069 202.555 330.069 194.695C330.069 187.021 328.576 169.054 314.206 169.054H312.526C308.98 169.054 307.861 169.99 307.861 173.172ZM503.817 253.462C511.095 253.462 518 258.328 518 267.499C518 289.583 462.759 301 430.846 301C368.14 301 341.64 279.477 327.829 255.708L314.579 233.998H307.861V271.429C307.861 278.728 312.526 280.974 320.738 281.723C324.097 281.91 326.523 284.717 326.523 287.899C326.523 291.455 323.724 294.262 320.178 294.262C308.794 294.262 297.223 293.514 285.652 293.514C276.321 293.514 266.803 294.262 257.472 294.262C253.926 294.262 251.127 291.455 251.127 287.899C251.127 284.717 253.553 281.91 256.912 281.723C260.458 281.349 262.698 279.29 262.698 273.675V176.166C262.698 170.177 262.324 168.68 256.726 168.119C253.553 167.931 251.127 165.124 251.127 161.755C251.127 158.386 253.926 155.579 257.285 155.579H317.752C343.506 155.579 376.165 163.627 376.165 195.631C376.165 209.48 370.753 220.71 357.13 227.26L359.182 230.816C374.112 260.574 389.602 291.642 431.406 291.642C471.717 291.642 479.555 253.462 503.817 253.462Z" fill="#54340E"/>
<path d="M435.95 172.768C428.314 174.549 427.313 185.157 429.177 194.905L447.539 190.623C449.357 190.199 450.63 189.902 449.368 184.433C447.813 177.687 443.404 171.03 435.95 172.768ZM458.944 262.507C428.766 269.544 396.731 256.073 389.331 223.984C382.645 194.996 400.996 168.238 432.951 160.595C455.858 155.254 487.33 162.133 492.7 188.738C493.331 191.473 491.472 194.212 488.745 194.848L431.841 208.116L431.967 208.663C434.953 221.608 445.045 239.62 466.134 234.702C475.951 232.413 484.199 224.15 488.517 215.458C489.271 213.745 490.921 212.592 492.557 212.211C493.466 211.999 494.417 211.969 495.41 212.122C499.061 213 501.104 215.213 500.309 219.241C496.71 238.524 480.579 257.463 458.944 262.507Z" fill="#54340E"/>
<path d="M503.441 233.6H509.201V235.172H507.137V242H505.493V235.172H503.441V233.6Z" fill="#54340E"/>
<path d="M519.203 233.6V242H517.595V234.788L515.639 242H513.323L511.703 235.976L511.391 234.716H511.367L511.391 236.012V242H509.819V233.6H512.771L514.247 239.36L514.535 240.62H514.559L514.847 239.36L516.359 233.6H519.203Z" fill="#54340E"/>
</svg>
