<svg width="1265" height="361" viewBox="0 0 1265 361" fill="none" xmlns="http://www.w3.org/2000/svg">
<path d="M296.999 129.787C290.828 64.0217 244.045 0.0341797 147.393 0.0341797C63.0821 0.0341797 7.04266 41.5187 7.04266 104.198C7.04266 218.96 212.722 193.338 218.456 264.402L218.456 275.871L83.8411 275.871V227.311H0C7.51216 302.332 58.6888 359.713 153.161 359.713C236.566 359.713 296.16 320.877 296.16 258.198C296.16 134.18 87.396 154.469 82.5332 93.1313V84.3112L216.277 84.3112L216.277 129.787L297.032 129.787H296.999Z" fill="white"/>
<path d="M562.641 274.093L411.693 274.093L411.693 86.524L562.641 86.96V136.393L648.695 136.393C641.183 39.7407 581.623 0 488.492 0C361.389 0 319.468 82.5332 319.468 180.057C319.468 277.581 361.389 360.114 488.492 360.114C587.357 360.114 642.961 312.023 651.345 214.902L562.641 214.902V274.06V274.093Z" fill="white"/>
<path d="M658.152 80.7902L762.316 80.7902V320.743C762.585 342.307 780.158 359.713 801.789 359.713C823.42 359.713 840.993 342.307 841.261 320.743V80.7902L944.989 80.7902V8.85449L658.119 8.85449V80.7902H658.152Z" fill="white"/>
<path d="M1187.96 8.85449V135.522L1046.74 135.522V8.85449L970.377 8.85449V203.936L1077.63 203.936V320.24H1077.86C1077.86 342.073 1095.54 359.746 1117.37 359.746C1139.2 359.746 1156.87 342.073 1156.87 320.24H1157.11V203.936L1264.36 203.936V8.85449L1187.99 8.85449H1187.96Z" fill="white"/>
</svg>
